<?xml version="1.0" encoding="UTF-8" standalone="no"?>
<!-- Created with Inkscape (http://www.inkscape.org/) -->

<svg
   xmlns:dc="http://purl.org/dc/elements/1.1/"
   xmlns:cc="http://creativecommons.org/ns#"
   xmlns:rdf="http://www.w3.org/1999/02/22-rdf-syntax-ns#"
   xmlns:svg="http://www.w3.org/2000/svg"
   xmlns="http://www.w3.org/2000/svg"
   xmlns:sodipodi="http://sodipodi.sourceforge.net/DTD/sodipodi-0.dtd"
   xmlns:inkscape="http://www.inkscape.org/namespaces/inkscape"
   id="svg4177"
   version="1.1"
   inkscape:version="0.91 r13725"
   width="1542.689"
   height="899.24731"
   viewBox="0 0 1542.689 899.24731"
   sodipodi:docname="sw-B0.svg">
  <metadata
     id="metadata4183">
    <rdf:RDF>
      <cc:Work
         rdf:about="">
        <dc:format>image/svg+xml</dc:format>
        <dc:type
           rdf:resource="http://purl.org/dc/dcmitype/StillImage" />
        <dc:title></dc:title>
      </cc:Work>
    </rdf:RDF>
  </metadata>
  <defs
     id="defs4181" />
  <sodipodi:namedview
     pagecolor="#ffffff"
     bordercolor="#666666"
     borderopacity="1"
     objecttolerance="10"
     gridtolerance="10"
     guidetolerance="10"
     inkscape:pageopacity="0"
     inkscape:pageshadow="2"
     inkscape:window-width="1440"
     inkscape:window-height="853"
     id="namedview4179"
     showgrid="false"
     fit-margin-top="0"
     fit-margin-left="0"
     fit-margin-right="0"
     fit-margin-bottom="0"
     inkscape:zoom="0.1627377"
     inkscape:cx="131.12224"
     inkscape:cy="1123.4667"
     inkscape:window-x="-4"
     inkscape:window-y="-4"
     inkscape:window-maximized="1"
     inkscape:current-layer="svg4177" />
  <path
     style="fill:#000000"
     d="m 740.81392,897.54411 c -13.06131,-2.07179 -19.54584,-3.90585 -29.06831,-8.22156 -6.45082,-2.92359 -22.80669,-13.23288 -22.80669,-14.37531 0,-0.17501 5.07791,-4.09905 11.28425,-8.72007 l 11.28425,-8.40187 7.34291,7.41155 c 13.43684,13.56247 28.8484,19.58991 50.08859,19.58957 16.91962,-2.7e-4 25.23596,-2.93307 34.55867,-12.18732 7.41663,-7.36216 9.91054,-14.10825 8.55567,-23.14322 -2.59085,-17.27706 -17.64987,-29.0628 -45.75248,-35.80759 -7.14277,-1.7143 -17.76811,-4.25871 -23.61186,-5.65423 -13.22305,-3.15775 -26.4102,-9.40664 -34.05873,-16.13914 -19.52901,-17.19012 -19.06955,-50.98842 0.95055,-69.92261 7.74038,-7.32051 21.12792,-14.31504 34.18862,-17.86235 12.70708,-3.45128 41.72493,-3.77193 53.91956,-0.59581 8.98735,2.34077 28.62737,11.6334 34.20383,16.18345 l 3.57882,2.92011 -8.57882,6.89417 c -12.16731,9.77798 -11.24942,9.5683 -17.13293,3.91375 -14.0841,-13.53602 -26.78071,-18.53569 -44.40151,-17.48438 -23.82208,1.42126 -38.91939,13.00703 -38.91939,29.86697 0,19.28364 16.44741,30.91204 54.60309,38.60465 25.63892,5.1691 45.43721,12.99051 55.19298,21.80426 2.60356,2.35216 6.3864,7.2599 8.40633,10.9061 3.46625,6.25695 3.6726,7.43714 3.6726,21.00444 0,13.61868 -0.21327,14.82531 -4.05366,22.93396 -5.49433,11.6008 -10.03162,16.99805 -20.03645,23.83405 -9.37149,6.40325 -21.66222,11.15227 -34.03489,13.15073 -10.77891,1.74105 -36.908,1.47522 -49.375,-0.5023 z m 490.39238,0.48607 c -38.591,-5.66106 -62.1063,-25.68537 -71.0001,-60.45976 -7.9275,-30.99615 -4.9861,-69.76557 7.1576,-94.34249 5.7275,-11.59163 16.529,-22.92262 27.8251,-29.18901 17.8428,-9.89815 46.4285,-14.69816 72.8756,-12.237 32.5815,3.032 51.4414,12.58596 60.2051,30.49849 3.1076,6.35144 6.0412,19.16254 4.8409,21.13976 -0.3131,0.51562 -7.7907,0.9375 -16.6171,0.9375 l -16.0479,0 -1.447,-8.3095 c -2.37,-13.60945 -8.0053,-22.87671 -18.1217,-29.80064 -8.5748,-5.86879 -19.9448,-8.62833 -32.1239,-7.79657 -34.6692,2.36772 -52.2633,33.58897 -52.3038,92.8145 -0.024,35.23286 6.2815,57.85582 20.2391,72.61387 7.7293,8.17269 15.5497,12.4826 27.0869,14.92803 18.6625,3.95572 35.9197,0.96571 47.568,-8.24178 7.2318,-5.71641 13.4204,-15.6429 14.5822,-23.38961 l 0.7975,-5.3183 13.1571,0 13.1572,0 -0.7553,6.37806 c -1.9562,16.51563 -17.702,30.83841 -40.2179,36.5828 -16.6156,4.23909 -43.9463,5.67243 -60.8576,3.19165 z M 67.046337,892.81517 C 59.837161,872.8473 1.5053022,709.16779 0.88208997,707.15794 L 0,704.31323 l 19.709301,0.34471 19.7093,0.34473 27.242786,83.62846 c 14.983533,45.99565 27.421922,83.80759 27.640867,84.02654 0.218944,0.21894 13.867386,-37.54679 30.329876,-83.92384 l 29.93179,-84.32191 9.82124,-0.0171 c 7.32182,-0.0127 9.68162,0.38052 9.27266,1.54538 -0.3017,0.85937 -16.20131,43.60937 -35.33246,95 l -34.7839,93.43747 -17.965499,0 c -13.238202,0 -18.11394,-0.41115 -18.529624,-1.5625 z m 183.142583,-93.4375 0,-95 63.75,0 63.75,0 0,6.25 0,6.25 -44.375,0 -44.375,0 0,37.5 0,37.5 35.625,0 35.625,0 0,5.625 0,5.625 -35.625,0 -35.625,0 0,39.375 0,39.375 44.375,0 44.375,0 0,6.25 0,6.25 -63.75,0 -63.75,0 0,-95 z m 205,0 0,-95 45.3125,0.008 c 49.38127,0.007 62.44336,1.13695 78.74349,6.80556 23.04239,8.01336 33.84335,22.20123 33.82909,44.43707 -0.009,13.35287 -3.24529,22.34966 -11.23942,31.24104 -7.02699,7.8157 -14.61592,13.13588 -24.9668,17.50284 l -7.89595,3.33123 25.74138,41.77495 c 14.15776,22.97621 26.02865,42.49267 26.37975,43.36992 0.50486,1.26141 -3.48692,1.52283 -19.08699,1.25 l -19.72535,-0.34561 -25.10835,-40.91837 -25.10835,-40.91838 -18.4375,-0.0191 -18.4375,-0.0191 0,41.25 0,41.25 -20,0 -20,0 0,-95 z m 80.4005,0.63095 c 10.12101,-2.63619 16.52374,-6.19488 24.18929,-13.44464 9.71679,-9.18974 13.53521,-17.74086 13.53521,-30.31131 0,-8.40479 -0.55429,-11.12871 -3.47473,-17.07567 -8.81981,-17.96003 -24.30873,-24.79933 -56.1629,-24.79933 l -18.48737,0 0,43.75 0,43.75 16.61237,0 c 10.71032,0 19.16179,-0.66404 23.78813,-1.86905 z m 366.07035,92.53679 c 0.22227,-1.00775 19.8104,-43.75573 43.52915,-94.99549 l 43.125,-93.16321 18.12498,0.0125 18.125,0.0125 38.125,89.5599 c 20.9688,49.25795 39.1059,92.01531 40.3047,95.01637 l 2.1798,5.45646 -18.4037,-0.34586 -18.4037,-0.34587 -13.3452,-32.5 -13.3452,-32.5 -46.09732,-0.32744 -46.09734,-0.32745 -15.55856,33.13995 -15.55855,33.1399 -8.55411,0 c -6.86548,0 -8.47433,-0.3617 -8.14995,-1.83226 z m 134.77913,-76.29549 c 0,-0.83546 -36.1824,-88.22336 -37.51222,-90.59968 -0.75416,-1.34766 -2.20656,0.69598 -5.33017,7.5 -2.36144,5.14384 -11.96919,25.80098 -21.35056,45.90477 -9.38137,20.10378 -17.05703,36.83816 -17.05703,37.1875 0,0.34934 18.28125,0.63516 40.625,0.63516 22.34368,0 40.62498,-0.28249 40.62498,-0.62775 z m 378.75,-16.87225 0,-95 63.75,0 63.75,0 0,6.25 0,6.25 -44.375,0 -44.375,0 0,37.5 0,37.5 35.625,0 35.625,0 0,5.625 0,5.625 -35.625,0 -35.625,0 0,39.375 0,39.375 44.375,0 44.375,0 0,6.25 0,6.25 -63.75,0 -63.75,0 0,-95 z M 736.43892,558.74646 c -14.24798,-1.94807 -29.95389,-5.5578 -46.875,-10.77344 -18.1418,-5.59189 -17.32771,-4.86551 -14.21817,-12.68611 1.42893,-3.59383 3.06392,-7.73313 3.63329,-9.19843 l 1.03522,-2.66417 10.18961,3.60581 c 15.15372,5.36248 32.54903,9.49402 49.11158,11.66445 8.11333,1.0632 15.00396,1.9331 15.3125,1.9331 0.30853,0 0.56097,-1.40625 0.56097,-3.125 0,-1.71875 -0.70312,-3.1353 -1.5625,-3.1479 -0.85937,-0.0126 -7.31136,-0.84017 -14.33775,-1.83906 -25.15429,-3.57599 -55.31097,-12.09478 -56.30764,-15.90601 -0.32102,-1.22762 -1.59707,-2.23203 -2.83566,-2.23203 -1.23859,0 -3.00111,-0.2769 -3.91671,-0.61532 -1.12828,-0.41704 -3.24379,3.10761 -6.56474,10.9375 -2.695,6.35405 -5.29508,12.0154 -5.77795,12.58077 -0.99915,1.16985 -25.03269,-10.58314 -37.36365,-18.27173 -13.85393,-8.63817 -31.05445,-21.81433 -41.11943,-31.49881 l -9.58897,-9.22646 6.73605,-6.85553 6.73606,-6.85551 10.13894,9.01636 c 5.57643,4.959 14.40472,12.22537 19.61846,16.14745 9.50046,7.14686 29.41202,19.64128 31.30103,19.64128 0.55357,0 1.58207,-1.07548 2.28556,-2.38995 1.13031,-2.11201 0.0815,-3.09186 -9.01851,-8.42559 -12.95366,-7.59241 -31.92853,-21.66776 -42.10536,-31.23329 -7.52209,-7.07025 -7.72528,-7.42067 -5.48064,-9.45205 2.22147,-2.0104 2.85899,-1.64003 13.55974,7.87745 10.25815,9.12382 39.26715,29.87343 41.76456,29.87343 0.57667,0 -0.36131,-3.49038 -2.08444,-7.7564 -3.84601,-9.52176 -4.20266,-23.54071 -1.0201,-40.09726 2.53046,-13.16415 1.54715,-17.58388 -4.88586,-21.96062 -7.96594,-5.41966 -11.47118,-17.46215 -7.93179,-27.25016 1.29245,-3.5742 1.12766,-4.83987 -1.25,-9.60066 -1.50629,-3.01605 -2.7387,-6.67551 -2.7387,-8.13214 0,-1.53975 -2.84444,-5.49285 -6.79484,-9.44325 -10.05324,-10.05324 -12.45476,-15.4967 -11.47719,-26.01501 0.64827,-6.97511 0.46298,-8.4945 -1.03588,-8.4945 -1.00397,0 -2.83602,-1.45937 -4.07124,-3.24305 -1.23521,-1.78366 -4.89123,-6.26036 -8.12448,-9.94821 -6.22916,-7.10501 -8.88293,-11.54483 -10.20964,-17.08091 -0.76742,-3.20232 -1.19812,-3.38708 -7.50874,-3.22104 -5.26133,0.13842 -7.95536,-0.56272 -12.5833,-3.27486 -6.16595,-3.61349 -13.1811,-12.92639 -13.21175,-17.53915 -0.0345,-5.19575 -1.63933,-8.33873 -5.1971,-10.17853 -4.36708,-2.2583 -8.5247,-8.65151 -8.53116,-13.11841 -0.006,-4.2823 -0.92504,-4.99244 -4.40695,-3.40596 -1.98938,0.90641 -4.04519,0.9244 -6.53299,0.0571 -2.6803,-0.93436 -3.93228,-0.85847 -4.78494,0.29001 -0.91241,1.22899 -4.22542,1.25543 -15.78392,0.12594 -8.04602,-0.78625 -14.92277,-1.7232 -15.28165,-2.08209 -1.13974,-1.13973 2.96903,-26.17757 6.95482,-42.38088 4.16324,-16.92472 9.9499,-33.41674 17.45024,-49.73324 l 4.76145,-10.35825 8.80964,4.43646 c 4.84528,2.44005 8.80962,4.74761 8.80962,5.12791 0,0.38032 -0.58229,1.77949 -1.29397,3.10929 -1.77002,3.30729 -1.06842,3.09836 7.06317,-2.10335 l 7.06775,-4.52119 -10.48097,-5.97696 c -16.59367,-9.46284 -15.95953,-7.42315 -6.79485,-21.85567 4.36562,-6.875 12.07218,-17.75943 17.12568,-24.18761 9.22905,-11.739571 41.77637,-44.364743 43.57487,-43.679091 0.52902,0.201685 3.63602,3.66221 6.90443,7.690055 l 5.94258,7.323356 -6.11684,5.059564 c -10.81209,8.943245 -28.40689,27.475376 -37.06855,39.043306 -4.63281,6.18729 -8.4233,11.65188 -8.4233,12.14354 0,0.49166 1.05915,1.46077 2.35366,2.15359 2.02121,1.08171 3.23643,0.0727 8.60348,-7.14353 9.23774,-12.42059 24.98865,-29.84492 34.95854,-38.67263 8.62022,-7.632665 8.81378,-7.726325 10.99238,-5.318989 2.15593,2.382265 1.97754,2.667206 -6.4077,10.23519 -9.56251,8.630519 -19.93339,19.241869 -25.4906,26.081669 l -3.63861,4.47839 10.55773,-5.48091 c 13.98865,-7.26205 22.81998,-10.21235 35.16337,-11.74712 9.78445,-1.21658 10.47645,-1.51838 16.33652,-7.12458 3.36561,-3.219795 7.62722,-7.077238 9.47025,-8.572091 2.40149,-1.947801 3.35876,-3.895815 3.37843,-6.875 0.0371,-5.613887 3.65676,-13.208941 8.99044,-18.864285 5.92618,-6.28358 8.53275,-6.010795 13.89583,1.454233 5.06935,7.056157 10.74848,9.611295 18.57921,8.35911 6.66356,-1.065547 12.80558,-4.328433 28.73806,-15.266803 24.61601,-16.900009 35.16103,-20.368674 50.63629,-16.656219 l 6.95977,1.669624 4.21148,-4.595516 c 7.92887,-8.651895 7.47622,-8.82755 -20.47603,-7.946069 -13.57812,0.42819 -26.45552,1.122745 -28.61644,1.543455 l -3.92893,0.764928 -1.51028,-8.953898 c -0.83064,-4.924644 -1.20386,-9.260296 -0.82937,-9.634785 1.86106,-1.861067 25.63907,-3.103472 50.51002,-2.639157 l 27.8125,0.51923 0,-2.75923 c 0,-1.517577 -0.98438,-3.1661483 -2.1875,-3.6634921 C 808.04829,8.2435412 796.09517,7.5605035 782.68892,7.2230235 760.24737,6.6580949 736.55358,8.3551548 724.44216,11.39493 l -2.6377,0.662019 2.26796,10.847863 c 3.03009,14.493186 2.99776,15.222862 -0.67426,15.222862 -3.38256,0 -3.21567,0.37329 -6.89013,-15.411196 -3.13242,-13.4560187 -3.17993,-15.488266 -0.38161,-16.3223651 6.09481,-1.8166861 26.60496,-4.6657439 41.97924,-5.8313185 16.25842,-1.23260474 37.91354,-0.40814018 56.61797,2.1555884 5.40323,0.7405944 5.66764,0.9600115 5.0256,4.1702402 -0.37273,1.8636834 -1.06818,6.332157 -1.54545,9.929941 l -0.86776,6.541426 -4.51105,-0.728045 c -8.45226,-1.364122 -50.851,-2.344534 -61.83241,-1.429786 -10.26454,0.855031 -10.92263,1.079709 -10.56259,3.606179 0.33341,2.33969 1.12435,2.667541 6.00895,2.49077 3.09375,-0.111963 15.32801,-0.39321 27.18724,-0.625 11.85924,-0.231789 21.56236,-0.843309 21.5625,-1.358934 4.1e-4,-1.495676 4.35394,-1.083826 6.00594,0.56817 0.82811,0.828117 4.17498,1.812492 7.4375,2.1875 5.31212,0.610599 5.93182,1.008299 5.93182,3.80683 0,2.819386 -0.45294,3.098729 -4.63144,2.856372 -9.25038,-0.536532 -1.16349,5.794392 12.45341,9.749302 2.92708,0.850146 7.5165,3.424157 10.1987,5.720024 4.22203,3.613892 5.78205,4.174302 11.62011,4.174302 8.8032,0 16.04815,3.687958 29.66102,15.098588 12.17724,10.207247 16.55466,12.671222 27.59275,15.531477 10.64113,2.757394 13.23384,4.257556 20.60545,11.92248 7.24114,7.529251 22.95795,20.400471 28.25625,23.140321 2.004,1.03631 7.0399,2.94123 11.19089,4.23316 8.72879,2.71671 8.94595,3.39764 -3.39859,-10.65687 -4.2781,-4.87071 -12.26465,-12.69998 -17.74787,-17.39836 l -9.96949,-8.542524 5.66012,-6.976636 c 3.11308,-3.83715 6.12052,-7.15083 6.6832,-7.363732 2.58418,-0.977772 37.77639,36.456292 50.57549,53.797292 2.4347,3.29869 2.57492,3.32979 5.36851,1.19085 l 2.86847,-2.1963 -8.44047,-11.20237 c -10.53955,-13.98827 -27.68182,-31.888536 -42.03146,-43.890002 -6.04173,-5.053057 -11.21956,-9.187374 -11.50632,-9.187374 -0.28676,0 -3.95032,4.504449 -8.14125,10.009888 -6.68869,8.786626 -7.91762,9.850547 -10.05618,8.70602 -1.33996,-0.717127 -2.4363,-1.834028 -2.4363,-2.482003 0,-0.647974 4.03396,-6.808866 8.96438,-13.690871 l 8.96437,-12.512737 4.47313,3.320292 c 18.88638,14.018891 38.05224,32.16991 51.0599,48.356227 8.702,10.82854 17.8074,23.86234 17.7528,25.41209 -0.019,0.55335 -3.1133,2.86881 -6.875,5.14546 -3.76178,2.27667 -6.83958,4.60259 -6.83958,5.16874 0,0.56615 1.53086,2.03243 3.40191,3.25839 3.33607,2.18585 3.52207,2.16191 9.60897,-1.23652 7.3871,-4.12434 6.4613,-4.89814 15.7317,13.14948 10.5691,20.57575 18.8594,43.90692 24.2702,68.30256 5.2332,23.59504 7.3246,65.64124 4.433,89.12577 -1.3055,10.6031 -7.2469,41.39827 -8.1697,42.3451 -0.6271,0.64337 -17.083,-3.67865 -18.3676,-4.82414 -0.5316,-0.474 0.2078,-5.80644 1.6431,-11.84984 3.7583,-15.82451 6.1459,-35.55367 6.174,-51.01641 0.024,-13.28858 -0.01,-13.4375 -2.9211,-13.4375 -2.9335,0 -2.9485,0.0777 -3.6721,19.0625 -0.6681,17.5277 -2.4327,31.80764 -5.967,48.28737 -1.1576,5.39763 -1.8132,6.40013 -4.1856,6.40013 -1.5472,0 -3.097,-0.2839 -3.444,-0.6309 -0.347,-0.347 0.3948,-5.26888 1.6484,-10.9375 3.7109,-16.77985 6.0658,-37.54846 6.0658,-53.49563 l 0,-14.93597 9.375,0 9.375,0 0,15.04926 c 0,16.93314 -1.6203,33.79193 -4.8934,50.91354 l -2.2152,11.5878 2.9875,0.74982 c 1.6431,0.4124 3.2582,0.47919 3.5889,0.14843 1.1801,-1.1801 5.3612,-25.55833 6.6851,-38.97845 1.5154,-15.36076 1.7535,-34.90685 0.5335,-43.8074 l -0.8136,-5.93591 -12.9364,0.88173 c -12.5814,0.85757 -12.9364,0.80985 -12.9364,-1.73853 0,-1.44117 -0.7829,-2.62029 -1.7398,-2.62029 -0.9569,0 -4.708,-2.66864 -8.3357,-5.9303 -3.8411,-3.45343 -6.8038,-5.30691 -7.0935,-4.43774 -2.6754,8.0262 -11.77833,10.48144 -17.19421,4.63763 -4.60483,-4.96871 -7.35903,-3.6094 -8.30213,4.09746 -0.43469,3.5523 -1.90349,8.04481 -3.26399,9.98335 -1.3605,1.93853 -3.15494,5.62518 -3.98764,8.19255 -1.6799,5.1795 -6.40585,9.53411 -11.43975,10.5409 l -3.29811,0.65963 1.83751,6.2683 c 2.35257,8.02538 0.75104,16.95583 -5.9117,32.96476 -6.63206,15.93524 -7.01389,18.3324 -3.87825,24.34825 4.35326,8.35192 4.30848,8.38306 -11.49172,7.98937 l -14.09902,-0.3513 0.006,8.33107 c 0.004,4.58208 -0.64245,10.01857 -1.43601,12.08107 -4.09254,10.63669 -5.27434,17.50241 -3.9805,23.125 1.82745,7.9415 0.56965,13.87448 -5.86957,27.68656 l -5.62314,12.06155 -1.09093,19.27642 c -0.9888,17.47196 -1.49437,20.35051 -5.40092,30.75093 -2.37051,6.311 -4.101,11.47454 -3.84553,11.47454 0.25548,0 5.38035,-3.07016 11.38864,-6.82259 12.6498,-7.90035 22.84701,-15.63804 34.9972,-26.55601 l 8.62868,-7.7536 6.54585,6.62819 6.54585,6.62818 -8.52172,7.82658 c -11.19212,10.27914 -30.1346,24.51246 -43.45751,32.65385 -5.87906,3.5926 -10.68921,6.9 -10.68921,7.34979 0,0.44978 0.75216,1.84644 1.67147,3.10366 1.59577,2.18235 1.94963,2.12557 7.8125,-1.25339 19.54152,-11.26242 42.46462,-28.9057 57.2768,-44.08437 l 7.38578,-7.56851 -9.24159,-8.65689 c -8.1369,-7.62209 -9.03881,-8.90121 -7.54522,-10.70089 0.93301,-1.1242 2.18262,-2.044 2.77692,-2.044 0.59431,0 6.00981,4.32893 12.03445,9.61983 6.02464,5.2909 11.22846,9.8311 11.56405,10.08933 1.24126,0.95512 -32.23266,32.55868 -42.90344,40.50621 -11.48783,8.55607 -35.43356,23.33768 -39.55022,24.41421 -1.88206,0.49217 -3.158,-0.94195 -6.20059,-6.96931 -2.1064,-4.17393 -3.83031,-8.10615 -3.83031,-8.73823 0,-0.63209 6.04687,-4.66998 13.4375,-8.97309 14.0569,-8.18448 31.58064,-20.76069 42.16989,-30.26394 5.46798,-4.90721 6.02413,-5.84414 4.53445,-7.63911 -0.93388,-1.12525 -2.09285,-2.0459 -2.5755,-2.0459 -0.48265,0 -4.4919,3.14045 -8.90944,6.97877 -18.51155,16.08437 -51.06974,37.6577 -52.11229,34.53007 -0.70059,-2.10175 -2.91881,-1.83865 -6.27514,0.74428 l -2.85552,2.19754 5.70522,12.20885 c 3.13787,6.71487 5.39822,12.70559 5.023,13.31272 -1.01447,1.64145 -24.39632,10.53282 -39.36189,14.96807 -15.94712,4.72615 -36.35169,8.50066 -51.83843,9.58928 l -11.55062,0.81192 -0.77285,-9.21851 c -0.42507,-5.07019 -0.37247,-9.56083 0.11687,-9.9792 0.48936,-0.41838 7.63974,-1.43059 15.88974,-2.24936 16.49956,-1.6375 31.85268,-4.71124 47.745,-9.5587 8.27566,-2.52423 10.38,-3.64982 10.38,-5.55214 0,-3.77684 -1.4219,-3.84566 -11.96142,-0.57903 -18.32067,5.67835 -58.92238,12.94185 -61.935,11.07995 -0.60696,-0.37512 -1.10357,-1.95406 -1.10357,-3.50872 0,-2.68887 0.71614,-2.90088 14.6875,-4.34836 8.07812,-0.83692 19.60074,-2.59908 25.60581,-3.91591 13.14151,-2.88175 28.90183,-7.48306 28.16264,-8.22223 -0.29344,-0.29344 -4.93947,-1.66038 -10.32452,-3.03765 -11.28893,-2.88721 -18.83033,-6.96674 -26.99278,-14.60175 -3.1751,-2.96994 -6.17276,-5.39989 -6.66149,-5.39989 -0.48871,0 -2.2924,1.66837 -4.00821,3.7075 -3.92695,4.6669 -9.3282,5.69669 -17.23624,3.28617 -5.67967,-1.73125 -6.38576,-1.70252 -9.375,0.38151 -7.86882,5.48593 -17.85302,3.94641 -26.07,-4.01989 l -5.3373,-5.17448 -6.45245,2.29172 c -3.54885,1.26043 -12.11582,5.78082 -19.03771,10.0453 -13.30305,8.19582 -21.4548,11.95754 -26.04805,12.02018 -4.69553,0.064 0.0454,2.09625 13.02026,5.58117 13.63445,3.66207 28.92865,6.37602 42.76766,7.58909 l 9.82513,0.86124 -0.74886,4.52775 c -0.41189,2.49025 -0.75507,6.7201 -0.76263,9.39965 l -0.0138,4.8719 -10.93362,-0.84042 c -16.20977,-1.24598 -51.08004,-8.79635 -64.32654,-13.92847 -1.59548,-0.61813 -2.3443,0.006 -2.96261,2.46964 -0.45512,1.81328 -0.55694,3.5674 -0.22628,3.89805 0.33065,0.33065 7.09484,2.51199 15.03154,4.84741 17.56357,5.16819 40.0989,9.11313 58.41224,10.22541 l 13.66372,0.82987 0.35828,-12.99765 c 0.35683,-12.93529 0.37356,-12.99765 3.48356,-12.99765 l 3.125,0 0.34985,15.9375 0.34984,15.9375 -14.72484,-0.1288 c -8.09868,-0.0708 -20.0686,-0.85942 -26.59985,-1.75241 z m 82.5,-7.64866 c 15.63471,-2.36976 33.777,-7.15557 50.17849,-13.23675 l 13.30348,-4.93254 -4.1594,-9.58793 c -3.31856,-7.64964 -4.74447,-9.65337 -7.0535,-9.91172 -5.47191,-0.61224 -6.19856,1.09431 -3.49527,8.20878 1.36191,3.58427 2.4762,7.04915 2.4762,7.69976 0,2.7859 -36.9589,12.39935 -61.15439,15.90698 -11.63693,1.68701 -14.99637,2.58893 -14.4964,3.89183 0.35794,0.93276 0.65079,2.48291 0.65079,3.44478 0,1.92289 2.17326,1.78717 23.75,-1.48319 z m -155.16413,-31.08848 4.21089,-9.36561 -2.96089,-2.46644 c -1.62847,-1.35654 -3.2866,-2.48514 -3.6847,-2.50801 -0.39811,-0.0229 -2.04113,2.77091 -3.65117,6.20841 -1.61004,3.4375 -3.48884,6.25 -4.1751,6.25 -4.0941,0 -32.32096,-18.66491 -50.47125,-33.37391 -12.59519,-10.20715 -13.14091,-10.50359 -15.4649,-8.40042 -2.303,2.08419 -2.3123,2.28775 -0.21137,4.62675 3.73287,4.15584 26.75755,22.30874 35.32262,27.84873 8.13564,5.26222 35.07384,20.52509 36.25,20.53882 0.34375,0.004 2.5199,-4.20723 4.83587,-9.35832 z m 35.87475,-12.47451 c 3.3904,-1.01357 10.66438,-4.47593 16.16438,-7.69413 30.46172,-17.824 34.74682,-19.01707 40.87337,-11.38016 4.08605,5.09339 9.29178,6.75065 16.78765,5.34441 l 4.53604,-0.85096 -3.84031,-3.97565 c -4.52556,-4.68506 -8.91553,-13.8208 -8.9543,-18.63434 -0.0426,-5.28881 -4.75928,-7.7012 -13.50651,-6.90802 -9.21864,0.83591 -18.74298,4.90872 -39.2797,16.79684 -26.09372,15.10487 -33.3255,17.48398 -41.03215,13.49871 -7.30293,-3.77649 -8.08302,-7.20788 -8.09405,-35.60384 -0.0113,-30.40281 -0.84048,-33.11892 -12.35054,-40.48182 -3.69504,-2.36369 -7.62866,-5.5974 -8.74138,-7.18603 -1.11272,-1.58862 -2.02312,-2.16377 -2.02312,-1.2781 0,2.82404 2.67802,6.8938 8.922,13.55863 7.54427,8.05278 7.7683,9.92313 3.99311,33.33802 -2.3363,14.49046 -1.71492,24.60105 1.9539,31.79254 8.8244,17.29725 26.47384,25.08026 44.59161,19.6639 z m 178.29997,-5.29763 c 12.84391,-6.98396 19.21298,-23.02821 20.48741,-51.60951 l 0.75244,-16.875 6.20158,-13.33664 c 4.90247,-10.54285 6.12003,-14.42327 5.81228,-18.52387 l -0.3893,-5.18723 -5.30371,4.55125 c -4.05318,3.47814 -5.77681,6.17865 -7.3102,11.45333 -1.10356,3.79613 -3.39338,9.93145 -5.08848,13.63404 -2.42401,5.29473 -3.33842,10.14006 -4.28309,22.69553 -1.91422,25.44179 -6.28981,36.26003 -15.61222,38.5998 -4.7252,1.18595 -16.8118,-3.02353 -29.23213,-10.18088 -16.06046,-9.25502 -25.76572,-13.27643 -33.48456,-13.87445 -8.31292,-0.64405 -19.68561,1.98653 -19.68561,4.55342 0,0.94651 4.48334,4.41119 9.96299,7.69926 5.47963,3.28809 13.91713,9.46087 18.75,13.71728 9.84517,8.6709 20.41712,14.17325 30.66201,15.95856 10.07784,1.7562 20.84385,0.48614 27.76059,-3.27489 z M 802.18803,489.9922 c 3.65122,-3.65122 3.17258,-5.10364 -2.06067,-6.25305 -2.0806,-0.45698 -6.99603,-3.79062 -10.92318,-7.40809 -7.97406,-7.34528 -11.36866,-9.45339 -15.22231,-9.45339 -4.34429,0 -4.30359,3.40871 0.12851,10.76485 4.53048,7.51942 8.80893,11.21409 15.93488,13.76063 6.5514,2.34121 8.63241,2.0994 12.14277,-1.41095 z m -108.18298,-6.98746 c 10.51568,-5.10197 10.54701,-5.13137 7.65756,-7.1875 -7.71778,-5.49197 -12.5273,-10.46441 -21.90828,-22.65035 l -10.19041,-13.23741 0,21.46663 c 0,19.35516 0.23422,21.72556 2.38124,24.0991 3.69711,4.08716 9.96002,3.38011 22.05989,-2.49047 z m 184.15696,-9.25207 c 1.50502,-3.19683 2.76248,-9.95874 3.4868,-18.75 0.62307,-7.5625 1.6662,-16.80518 2.31806,-20.53926 0.65185,-3.7341 1.0431,-6.93135 0.86945,-7.105 -0.17365,-0.17367 -3.50386,3.72526 -7.40045,8.66426 -7.07251,8.96454 -27.32636,29.8398 -29.72836,30.64047 -2.64274,0.88092 -1.09731,3.81927 3.41891,6.50043 7.4202,4.40519 13.00186,6.11629 19.05956,5.84286 5.24327,-0.23666 5.78068,-0.59066 7.97603,-5.25376 z m -158.29667,-5.10834 c 4.99047,-2.46584 9.07358,-4.89254 9.07358,-5.39269 0,-0.50013 -2.4673,-2.75799 -5.48288,-5.01748 -16.43147,-12.31159 -39.66152,-45.57688 -44.49484,-63.71634 l -1.46145,-5.48484 -6.27248,6.10984 c -3.44985,3.36042 -6.7082,7.23485 -7.24076,8.60985 -2.4608,6.35339 8.54754,30.35728 20.92391,45.625 9.08535,11.20786 21.98694,23.75 24.43066,23.75 0.79788,0 5.5338,-2.0175 10.52427,-4.48334 z m 128.09614,-10.9726 c 10.87136,-9.50205 20.92311,-20.74632 33.674,-37.66906 14.02168,-18.60929 15.35598,-22.21112 12.30144,-33.20669 -1.33661,-4.81147 -9.53826,-15.27989 -11.46746,-14.63682 -0.64853,0.21617 -2.4806,3.59518 -4.07127,7.50892 -7.0553,17.35918 -24.80485,41.66765 -45.23346,61.94838 -8.5117,8.45009 -15.47581,15.54885 -15.47581,15.77505 0,0.22618 2.45637,1.099 5.45861,1.93957 3.00224,0.84058 7.08037,2.59748 9.0625,3.90422 1.98214,1.30674 4.28904,2.37961 5.12645,2.38413 0.83742,0.005 5.61867,-3.57193 10.625,-7.9477 z m -59.02295,2.33114 c 1.994,-1.03114 6.6067,-2.50669 10.25043,-3.27901 3.64372,-0.77231 8.87496,-2.53125 11.62496,-3.90875 7.04756,-3.53019 30.13355,-27.56943 43.40634,-45.19864 10.03535,-13.32918 23.46866,-37.05131 23.46866,-41.44373 0,-1.84158 -5.22145,-10.41145 -6.39268,-10.49216 -0.42222,-0.0291 -1.77026,2.61896 -2.99562,5.88459 -8.02714,21.39238 -15.91404,32.2008 -42.85849,58.7344 -19.6389,19.33945 -24.16679,23.17736 -29.8549,25.30556 -15.1976,5.68615 -36.74293,6.3625 -46.22481,1.45108 -2.63918,-1.36704 -8.45475,-6.23828 -12.9235,-10.82496 -4.46875,-4.58669 -12.40009,-11.62248 -17.62519,-15.63509 -12.08684,-9.28208 -22.57736,-21.73925 -30.14067,-35.79115 l -5.94884,-11.05234 -0.0176,5.92888 c -0.0204,6.84918 6.48183,24.23085 13.30016,35.5538 6.05246,10.05111 21.4887,28.78632 28.74909,34.89322 9.55335,8.03559 10.68341,8.39976 23.06057,7.43151 8.99103,-0.70335 11.80334,-0.47663 15.42885,1.24378 2.93294,1.39177 5.85739,1.83682 8.63983,1.31484 2.31338,-0.434 5.55002,-0.25143 7.19251,0.40571 4.21906,1.68799 5.74417,1.60732 9.86095,-0.52154 z m -5.30332,-19.54351 c 9.09011,-1.74654 16.16698,-6.88575 37.79177,-27.44433 18.66338,-17.74317 24.91938,-25.28341 32.57524,-39.26236 7.34366,-13.40888 8.48431,-16.24858 11.83568,-29.46558 4.7339,-18.66941 6.79866,-36.44738 6.82662,-58.77818 0.0224,-17.92355 -0.17698,-19.67602 -2.4756,-21.75624 -1.375,-1.24436 -2.5,-3.20385 -2.5,-4.35443 0,-3.3477 -7.1613,-13.23438 -14.11417,-19.48561 -13.87726,-12.47684 -34.62423,-19.06646 -66.65727,-21.17159 -16.29241,-1.07068 -26.89816,-2.91155 -29.32492,-5.09 -1.72387,-1.54747 -2.35159,-1.36006 -5,1.49274 -3.89954,4.20048 -16.04183,12.48708 -22.77898,15.54569 -3.45076,1.56661 -8.10505,2.3927 -13.58243,2.41075 -7.91112,0.026 -8.81013,0.34671 -17.76589,6.3367 -10.27126,6.86984 -17.60029,14.63196 -22.75093,24.0954 l -3.30467,6.07177 0.60772,25.82429 c 0.55478,23.57483 0.94207,27.14023 4.44604,40.93158 4.32721,17.03155 8.86989,29.12958 17.0644,45.44584 6.6753,13.29131 10.26038,17.57826 24.37935,29.15228 5.86121,4.80473 15.21024,13.40729 20.7756,19.11681 6.5065,6.67502 11.63826,10.83163 14.375,11.64339 4.62106,1.37068 19.09836,0.75448 29.57744,-1.25892 z m -33.13379,-30.39499 c -2.23438,-0.99881 -4.0625,-2.73636 -4.0625,-3.86123 0,-1.72196 0.83966,-1.89492 5.3125,-1.09434 2.92187,0.52298 6.15625,0.88772 7.1875,0.81053 1.03125,-0.0772 10.45312,-0.33565 20.9375,-0.57433 14.3122,-0.32585 19.0625,-0.0574 19.0625,1.0774 0,2.67297 -7.90586,4.23077 -20.67641,4.07412 -6.84673,-0.084 -14.97984,0.19304 -18.07359,0.61559 -3.7267,0.509 -6.996,0.15541 -9.6875,-1.04774 z m -15.90169,-11.13094 c -1.45441,-1.0635 -2.0148,-2.4818 -1.50524,-3.8097 0.64832,-1.68946 1.72897,-1.9434 5.36625,-1.26105 2.50495,0.46994 8.47652,0.11438 13.27013,-0.7901 6.78415,-1.28007 9.91461,-1.32385 14.12577,-0.19753 4.46669,1.19464 6.2319,1.10362 10.12257,-0.522 4.34042,-1.81354 5.28656,-1.79516 11.98493,0.23296 7.29512,2.20877 9.67858,2.05036 20.66228,-1.37326 2.3213,-0.72355 2.8125,-0.40343 2.8125,1.83292 0,5.38164 -14.10245,8.12908 -25.4928,4.96649 -3.9762,-1.10401 -5.72969,-0.96291 -9.57336,0.77035 -4.35467,1.96367 -5.1568,1.97306 -10.75719,0.12581 -5.41719,-1.78682 -6.77244,-1.80289 -12.92665,-0.15321 -8.60751,2.3073 -15.09024,2.3712 -18.08919,0.17832 z m 14.02669,-11.51955 c -3.79423,-3.85649 2.95788,-5.51656 22.8125,-5.60869 15.8775,-0.0736 23.9616,1.19229 23.46616,3.67478 -0.29604,1.48334 -1.56197,1.93091 -4.74742,1.6785 -9.20798,-0.72963 -29.60012,-0.54949 -34.96874,0.30891 -3.09375,0.49467 -6.04688,0.47059 -6.5625,-0.0535 z m -1.23468,-23.12961 c -2.95287,-1.71785 -4.85578,-5.55353 -3.93961,-7.94105 1.08348,-2.82347 4.23679,-2.4257 4.23679,0.53445 0,2.09514 0.83334,2.5 5.14579,2.5 4.74583,0 5.0821,-0.2186 4.32635,-2.8125 -2.04664,-7.02452 -2.08098,-11.16402 -0.1769,-21.3254 1.4368,-7.66771 1.99697,-17.21821 1.89286,-32.27154 -0.14853,-21.47726 0.66163,-25.99083 4.05595,-22.59651 2.25125,2.25125 2.80557,28.87248 0.91723,44.04928 -0.89522,7.19492 -1.66336,16.73002 -1.70697,21.18913 l -0.0793,8.10745 5,2.60138 c 2.75,1.43076 5,3.12615 5,3.76755 0,1.02146 -5.64816,2.46583 -18.75,4.79482 -2.0625,0.36663 -4.72747,0.098 -5.92217,-0.59706 z m 30.44953,-1.03599 c -3.2227,-2.04122 -0.0241,-3.87061 6.7676,-3.87061 5.84456,0 7.05295,-0.42814 8.82,-3.125 1.12616,-1.71875 2.82664,-3.125 3.77881,-3.125 2.78579,0 1.99297,4.85191 -1.33695,8.18181 -2.49207,2.49209 -4.31107,3.06459 -9.6875,3.04905 -3.64062,-0.01 -7.3945,-0.51014 -8.34196,-1.11025 z m -72.22029,-56.28341 c -7.19757,-3.26814 -15.79859,-11.72068 -13.87942,-13.63984 0.79605,-0.79605 2.12811,-1.44736 2.96012,-1.44736 0.83203,0 5.01592,-1.65673 9.29753,-3.68161 14.30629,-6.7658 26.9516,-6.30509 39.04145,1.42241 11.80989,7.54856 10.52402,11.09355 -5.981,16.4889 -12.26513,4.00935 -23.80401,4.32409 -31.43868,0.8575 z m 27.33826,-3.82811 c 5.15112,-1.50067 8.8419,-4.5474 8.12263,-6.70523 -0.88871,-2.66614 -8.30778,-5.97569 -14.90398,-6.64847 -13.19528,-1.34588 -27.83238,7.76315 -19.57532,12.18218 7.17426,3.83955 15.87151,4.22614 26.35667,1.17152 z m 71.31577,1.13261 c -11.93395,-3.78124 -13.11099,-8.46454 -4.15983,-16.55138 9.57726,-8.65248 24.90428,-8.99988 42.09754,-0.95418 9.25081,4.32897 10.22446,7.09272 4.04812,11.49066 -11.97288,8.52545 -27.18446,10.70466 -41.98583,6.0149 z m 28.46155,-5.2042 c 3.06755,-1.54688 5.75296,-3.76434 5.9676,-4.9277 0.9853,-5.34071 -19.86622,-9.32459 -30.39024,-5.80634 -3.97522,1.32895 -5.0794,2.35884 -5.38741,5.02497 -0.43463,3.76206 1.61317,5.32381 9.37525,7.15003 8.29748,1.95219 14.58522,1.5088 20.4348,-1.44096 z M 685.93613,285.95821 c -3.39949,-3.39949 6.63426,-14.89637 16.18333,-18.54319 4.77563,-1.82383 7.5382,-1.99395 17.79876,-1.09609 6.68014,0.58456 17.2082,1.09004 23.3957,1.12329 9.1398,0.0491 11.25,0.41215 11.25,1.93545 0,1.20062 -2.24791,2.45776 -6.25,3.4953 -5.23459,1.35705 -8.58545,1.31269 -20.625,-0.27306 -9.12886,-1.20238 -16.25853,-1.52291 -19.53608,-0.87833 -6.69737,1.31717 -13.62737,5.6524 -16.31882,10.20867 -2.19666,3.71866 -4.5797,5.34615 -5.89789,4.02796 z m 102.59988,-7.40013 c -1.72645,-1.72645 -0.68009,-2.96112 6.34041,-7.48142 17.32435,-11.15469 27.97492,-11.88083 47.94795,-3.26901 7.3567,3.17201 13.04185,4.90886 14.67231,4.48248 3.20889,-0.83915 5.28705,2.96899 2.56189,4.69455 -3.32675,2.10649 -8.8902,1.1206 -19.04215,-3.37438 -16.68573,-7.38797 -27.75568,-7.18373 -40.89604,0.75451 -6.65579,4.02084 -10.4011,5.37655 -11.58437,4.19327 z M 655.39369,405.31517 c 1.04399,-3.56636 3.83375,-7.5853 8.48768,-12.22735 10.28225,-10.256 10.17916,-10.03952 11.38357,-23.90531 0.89573,-10.31218 0.73134,-14.27719 -0.84401,-20.35663 -1.07601,-4.1525 -2.22175,-7.97935 -2.54606,-8.5041 -0.32431,-0.52475 -2.3832,0.38655 -4.57531,2.02511 -2.1921,1.63858 -6.76718,4.18896 -10.16683,5.66751 -8.55382,3.72017 -14.05531,8.18678 -16.77959,13.62318 -4.91677,9.81163 -4.18248,20.9643 1.8525,28.13648 1.6408,1.94999 2.98328,4.8719 2.98328,6.49315 0,5.5234 4.70365,14.36046 7.64356,14.36046 0.55335,0 1.70589,-2.39063 2.56121,-5.3125 z m 255.24029,-21.35463 c 2.98939,-6.14421 7.0862,-21.67262 7.02749,-26.63672 -0.061,-5.1602 -5.32881,-13.40095 -14.20124,-22.21598 -11.78177,-11.70554 -13.71981,-15.30498 -12.98854,-24.1231 0.68587,-8.27057 3.26519,-11.492 7.48355,-9.34648 1.57228,0.79967 4.36163,2.66396 6.19858,4.14287 4.8432,3.89921 7.4784,2.48884 5.76724,-3.08667 -1.12153,-3.65425 -0.9339,-4.98898 1.19661,-8.51277 1.38967,-2.29846 2.92865,-6.98411 3.41995,-10.41256 1.11521,-7.78234 3.22621,-11.93046 8.20231,-16.11756 5.50096,-4.62876 11.32994,-4.33116 21.56645,1.1011 9.12344,4.84157 14.34839,5.49119 17.59449,2.1875 4.61797,-4.6999 10.75345,-16.95079 11.56926,-23.1007 1.41004,-10.62935 8.14328,-14.1561 14.96191,-7.8368 5.8242,5.39767 10.50688,3.46037 10.50688,-4.34686 0,-4.18878 -2.5381,-9.47817 -5.55255,-11.5715 -4.33394,-3.00964 -12.14113,-0.15302 -21.3394,7.80802 -8.41373,7.28204 -14.39068,9.98534 -22.07735,9.98534 -6.42179,0 -6.72481,-0.16796 -13.5307,-7.5 -8.39736,-9.04655 -10.18945,-9.5259 -8.56379,-2.29064 1.29628,5.76929 0.49723,11.44894 -2.21272,15.72814 -2.64094,4.17023 -5.20295,3.44894 -6.66,-1.875 -1.61014,-5.8833 -5.72053,-12.66343 -8.27027,-13.64185 -1.17153,-0.44956 -3.40064,0.65164 -5.61657,2.77462 -4.67895,4.48272 -15.4707,5.6778 -22.97129,2.54387 -2.66156,-1.11208 -5.1143,-1.74688 -5.45051,-1.41067 -0.33621,0.33622 0.30905,8.07798 1.43391,17.20392 1.12488,9.12593 2.39404,20.53011 2.82037,25.34261 0.87767,9.90744 -1.28165,36.98987 -3.96818,49.76922 -3.72922,17.73924 -2.19814,22.64643 12.51635,40.11543 8.80306,10.45095 10.53785,13.56207 12.51446,22.44316 0.7588,3.40933 0.90661,3.47798 3.13881,1.45788 1.28838,-1.16598 3.7564,-5.02599 5.48449,-8.57782 z M 633.15833,362.47846 c 1.67427,-7.07952 11.08825,-15.91483 22.49669,-21.11381 13.08311,-5.96218 13.93629,-7.57321 12.1385,-22.92077 -0.78543,-6.70516 -1.55215,-14.59176 -1.70383,-17.52577 -0.49113,-9.50055 -3.34242,-6.90484 -8.60596,7.83456 -3.10627,8.69847 -10.38479,16.875 -15.02163,16.875 -2.29328,0 -3.38643,1.01069 -4.53821,4.19586 -2.09401,5.7909 -5.6518,8.64874 -11.79697,9.47608 -4.50465,0.60647 -5.37253,1.22838 -6.31744,4.52702 -0.68302,2.38441 -0.5839,5.7235 0.26333,8.86985 1.62236,6.02497 8.39646,15.79608 10.47155,15.10438 0.80917,-0.26973 1.98546,-2.6648 2.61397,-5.3224 z M 940.507,338.29071 c 0.39728,-4.38143 2.76736,-12.56385 5.88359,-20.3125 9.75899,-24.26615 8.01279,-36.34886 -6.30911,-43.65535 -10.01639,-5.10998 -18.64256,-1.18447 -18.64256,8.48368 0,2.63589 -1.15149,7.02084 -2.55887,9.74433 -2.09181,4.04796 -2.41097,6.26957 -1.74855,12.17135 0.92736,8.26225 -0.41822,10.90545 -5.55164,10.90545 -1.81663,0 -5.40196,-1.125 -7.96741,-2.5 -5.6086,-3.00603 -7.17353,-3.12883 -7.17353,-0.56293 0,3.74198 4.13909,10.02694 12.71893,19.31293 4.76413,5.15625 9.47635,10.35937 10.47157,11.5625 1.42389,1.72134 3.77032,2.1875 11.01089,2.1875 l 9.20139,0 0.6653,-7.33696 z m -312.8375,-6.40264 c 1.27392,-0.68179 2.68914,-2.93757 3.14496,-5.01286 1.09438,-4.98269 3.77638,-7.49754 7.99585,-7.49754 5.12831,0 8.36284,-4.36125 13.72834,-18.51047 2.64469,-6.97428 6.32307,-14.66618 8.17418,-17.09309 3.76637,-4.93798 7.72208,-16.67384 6.13316,-18.19602 -0.56763,-0.54379 -2.43306,-1.17698 -4.14536,-1.40707 -4.16807,-0.56009 -6.48319,-5.72346 -7.22692,-16.11819 -1.75186,-24.48454 15.84437,-39.86744 45.65271,-39.91032 5.94412,-0.009 10.3125,-0.53769 10.3125,-1.24913 0,-1.86816 -16.64214,-9.85812 -23.67478,-11.36635 -11.34071,-2.43215 -23.20908,2.1125 -38.82522,14.86698 -13.64931,11.14808 -26.73305,14.78027 -39.16046,10.87137 -3.81003,-1.1984 -8.164,-3.4953 -9.6755,-5.10421 -3.52894,-3.75639 -2.83427,-7.52524 3.98317,-21.61005 8.26435,-17.07411 19.92483,-26.70931 36.4565,-30.12448 6.71799,-1.38782 7.66849,-2.04212 13.45333,-9.26098 8.10705,-10.11675 11.80097,-12.15308 24.83907,-13.69287 22.89583,-2.70398 23.22153,-2.63153 43.15535,9.5985 4.08456,2.50602 8.50361,4.55638 9.82013,4.55638 1.31651,0 4.49797,-1.66666 7.06993,-3.70369 17.93043,-14.20116 38.76637,-2.39684 35.76085,20.25984 -0.98582,7.43145 -5.87891,20.4801 -10.34962,27.59982 -1.65118,2.62954 -2.82789,6.00454 -2.61494,7.5 0.33201,2.33153 1.45604,2.84022 7.88719,3.56937 4.125,0.46768 15.88157,1.79655 26.12572,2.95303 34.72072,3.91969 49.81159,9.50949 64.79159,23.9994 l 10.02521,9.69723 -0.88706,-6.25 c -0.48789,-3.4375 -1.98246,-8.75029 -3.32127,-11.80619 -5.97607,-13.64065 -13.19803,-18.40866 -35.2446,-23.26882 -22.76724,-5.01904 -25.28409,-6.4119 -28.22818,-15.62194 -1.09495,-3.42534 -2.70277,-5.06943 -6.9987,-7.15655 -11.82771,-5.74634 -17.51271,-18.7179 -17.51271,-39.959 0,-12.65607 -0.22279,-14.0625 -2.22765,-14.0625 -5.05745,0 -10.87762,-3.83114 -15.87446,-10.4494 -4.5044,-5.96604 -6.19048,-7.21263 -12.0654,-8.92052 -5.96115,-1.73295 -7.28438,-2.73342 -10.40921,-7.8702 -6.76647,-11.12312 -9.21401,-13.249096 -18.81184,-16.340286 -7.71262,-2.484014 -10.44239,-2.778781 -18.84526,-2.034956 -8.6385,0.764681 -10.51027,0.53869 -15.48522,-1.869648 -3.11245,-1.506706 -7.32646,-4.762398 -9.36447,-7.234871 -3.68979,-4.476339 -3.71678,-4.485199 -6.36428,-2.089245 -4.32496,3.914036 -5.4831,6.948819 -6.16053,16.143051 -0.60085,8.154811 -0.88028,8.828618 -4.39168,10.590169 -6.94162,3.482376 -13.125,7.603066 -13.125,8.746696 0,0.62443 1.95034,1.779 4.33409,2.56571 5.35186,1.76627 10.18259,7.32642 11.89705,13.69346 2.68897,9.98608 -3.82888,25.36985 -13.57856,32.04888 -11.79172,8.07791 -26.34747,9.8036 -63.27758,7.50201 -14.86092,-0.92617 -18.5764,-0.77767 -24.63769,0.98469 -8.62666,2.50826 -24.00973,13.69966 -33.98992,24.72814 -10.7581,11.88808 -19.49739,31.99913 -19.49739,44.86784 0,4.64787 2.70699,4.85228 8.86286,0.66925 7.79854,-5.29924 10.65751,-4.79487 11.80008,2.08173 0.93353,5.61857 3.4951,11.51959 5.55246,12.79111 0.67825,0.41919 3.4769,0.0899 6.21922,-0.73171 6.15594,-1.84436 8.20366,-0.50995 9.37627,6.11014 1.42451,8.04222 2.00407,9.0003 6.9802,11.53892 13.19629,6.73224 24.95891,-1.8745 24.95891,-18.26249 0,-7.72787 -1.91407,-10.52458 -10.60694,-15.49813 -10.76475,-6.15898 -16.89306,-15.42049 -16.89306,-25.52994 0,-6.53176 6.93025,-15.42539 14.14387,-18.15088 4.8092,-1.81703 6.58128,-1.6758 8.9722,0.71512 2.55829,2.5583 1.24997,4.0374 -5.91113,6.68268 -6.82173,2.51992 -11.42603,8.9705 -10.50834,14.72205 0.96489,6.04744 4.99556,10.87888 13.26831,15.90432 13.59673,8.25957 16.73008,15.10731 13.14273,28.72256 -3.21954,12.21926 -10.81731,19.42375 -20.48405,19.42375 -2.13048,0 -3.87359,0.52589 -3.87359,1.16863 0,2.78242 2.91436,8.47622 6.01702,11.75547 10.41354,11.00622 21.64344,9.03684 28.51102,-4.99999 3.0097,-6.15161 3.56783,-8.84684 3.58117,-17.29325 0.0148,-9.3086 -0.32316,-10.61561 -4.84823,-18.75586 -11.01045,-19.80698 -10.97682,-19.72443 -10.36825,-25.44134 0.65376,-6.14155 3.14698,-9.41556 6.26035,-8.22086 2.41828,0.92799 2.69227,4.11291 0.72522,8.43012 -1.51081,3.31587 -0.41911,6.15535 6.19189,16.10498 6.13118,9.22751 8.31047,16.75547 8.25116,28.5021 -0.0561,11.11732 -2.41691,18.72046 -8.02732,25.85294 -1.39922,1.77881 -2.54403,4.86455 -2.54403,6.85718 0,5.17546 5.1237,14.58526 11.77709,21.62894 3.1476,3.33224 5.72291,6.5588 5.72291,7.17013 0,1.35173 7.24976,4.62409 10.39467,4.69189 1.24833,0.0269 3.31198,-0.5089 4.58591,-1.19068 z m 55.87566,-87.23006 c 7.4594,-7.40833 15.5465,-14.41113 17.97135,-15.5618 2.42486,-1.15066 9.54958,-2.60776 15.83275,-3.23799 12.41776,-1.24555 17.87783,-3.6442 27.21466,-11.9556 l 5,-4.45086 -5.625,1.73225 c -3.09375,0.95274 -16.03125,2.37696 -28.75,3.16495 -26.11374,1.61786 -35.93969,3.55676 -43.02904,8.49069 -6.46037,4.49617 -10.72096,12.65287 -10.72096,20.52477 0,7.91664 2.82109,14.76325 6.08307,14.76325 1.4562,0 7.99687,-5.49832 16.02317,-13.46966 z m -160.24619,3.15716 c -0.44462,-1.54688 -1.08119,-3.79135 -1.41458,-4.98771 -0.55258,-1.98303 -1.12277,-1.9002 -6.45336,0.9375 -3.21597,1.71198 -6.64857,3.11271 -7.628,3.11271 -4.23776,0 0.40153,1.64841 7.02509,2.49614 3.97969,0.50933 7.69558,0.99982 8.25754,1.08996 0.56195,0.0901 0.65793,-1.10173 0.21331,-2.6486 z m 519.38993,-1.34963 c 0,-0.86578 -2.8381,-3.73854 -6.307,-6.38391 -11.074,-8.44514 -23.915,-23.55451 -33.5988,-39.53395 -11.71287,-19.32765 -21.89898,-32.02586 -30.37042,-37.86036 -3.64122,-2.5078 -7.04094,-4.55965 -7.55492,-4.55965 -2.24978,0 7.02218,10.87114 11.26576,13.20884 6.5776,3.62343 6.01436,6.16834 -2.5405,11.47895 -9.17055,5.6928 -17.19899,6.5651 -31.1331,3.38262 -9.23326,-2.10882 -10.49829,-2.12945 -18.27791,-0.29797 -6.03498,1.42076 -10.34028,1.68842 -15.4896,0.96302 -16.206,-2.28297 -23.61902,-6.22461 -38.2139,-20.31902 -12.14343,-11.72703 -16.83899,-14.03679 -7.90694,-3.88944 3.72987,4.23736 5.90806,8.36575 7.77795,14.7418 1.42847,4.87091 3.70411,11.93102 5.05696,15.68916 3.95014,10.97318 4.86293,17.9516 3.39018,25.9184 -1.28278,6.9392 -1.21842,7.2739 1.9174,9.97121 7.1036,6.11027 18.12578,5.08462 22.97482,-2.13786 1.60063,-2.38409 3.49401,-4.54057 4.20753,-4.79217 0.71351,-0.2516 4.05471,2.2585 7.4249,5.57801 6.4544,6.35735 7.03797,6.32451 4.65626,-0.26201 -1.934,-5.34838 0.13507,-7.98354 6.26851,-7.98354 3.8849,0 5.43579,1.01779 11.491,7.54111 10.74308,11.5736 16.908,11.32193 31.87398,-1.30125 11.12482,-9.38332 20.00855,-12.06513 26.30354,-7.94051 1.72023,1.12715 5.3198,5.80276 7.999,10.39025 2.6793,4.58749 7.4269,10.69654 10.5504,13.57565 4.6479,4.28432 6.5659,5.23475 10.5635,5.23475 2.6864,0 6.7692,0.7925 9.0729,1.76113 4.4298,1.86258 8.5985,0.80896 8.5985,-2.17325 z m 1.3273,-21.02182 c -0.739,-3.44589 -3.3405,-10.5798 -5.7812,-15.85315 -2.4407,-5.27334 -5.5528,-13.80665 -6.9158,-18.9629 -7.3054,-27.63665 -43.61748,-57.16844 -76.89274,-62.53515 -5.03509,-0.81208 -19.51618,-1.22306 -34.86254,-0.98945 l -26.25,0.3996 -6.49182,-3.5977 -6.49183,-3.59769 -5.63157,3.30032 c -7.35859,4.31242 -14.41687,5.11626 -25.00147,2.84732 -10.61387,-2.27522 -16.88108,-0.94619 -32.31282,6.85232 -7.02915,3.55222 -12.71234,5.48182 -17.82049,6.05054 l -7.5,0.83504 6.17458,2.88079 c 5.7914,2.70201 7.14888,2.82873 21.875,2.04208 12.39023,-0.66187 17.01813,-0.43562 21.95042,1.07312 8.41421,2.57381 10.78925,2.44686 20.62944,-1.1027 14.50329,-5.23163 22.17301,-6.08309 35.31664,-3.92075 6.35466,1.04545 18.59515,2.43386 27.20108,3.08536 10.85707,0.82192 17.74504,2.01652 22.5,3.90224 3.76907,1.49473 10.49935,3.85105 14.95619,5.23626 4.45685,1.38521 10.48854,4.15961 13.40375,6.16534 7.48024,5.14653 21.34579,21.5872 28.52228,33.81942 12.374,21.09136 17.4468,27.22646 33.7206,40.78235 l 6.25,5.20616 0.398,-3.82676 c 0.2189,-2.10472 -0.2067,-6.64612 -0.9457,-10.09201 z M 873.30186,211.50267 c -0.009,-6.51964 -0.62029,-9.90016 -2.21904,-12.26623 -1.21384,-1.79641 -3.05886,-7.35191 -4.10006,-12.34553 -2.19298,-10.51754 -4.13645,-14.74149 -10.35858,-22.51324 -5.72338,-7.14881 -7.16431,-8.35916 -13.46865,-11.3134 -4.52433,-2.12013 -7.59725,-2.38003 -25,-2.11443 -19.64762,0.29987 -19.89202,0.27003 -24.9984,-3.05206 -2.83624,-1.84519 -6.35186,-4.87416 -7.8125,-6.73107 l -2.65571,-3.37619 0.0217,4.23107 c 0.036,7.02418 3.43687,20.87217 6.43661,26.20949 1.5518,2.76107 4.81164,6.20831 7.24408,7.66055 6.85402,4.09209 10.13022,7.45527 12.15162,12.47423 2.56741,6.37468 5.3859,7.84743 21.09672,11.02371 7.52084,1.5205 16.70098,3.89529 20.40031,5.27732 7.17972,2.68227 15.1283,9.04899 18.56893,14.87352 3.1029,5.2528 4.70709,2.50527 4.69297,-8.03774 z m -239.45285,0.56814 c 2.90997,-1.51677 9.99504,-6.34713 15.74459,-10.73414 13.74843,-10.49034 21.91401,-13.56374 34.54377,-13.00179 8.89503,0.39578 10.62239,0.96783 24.375,8.07221 16.8842,8.7221 21.61065,9.9305 31.12001,7.95637 10.88154,-2.259 17.84618,-7.7782 23.35774,-18.51009 4.01305,-7.81403 4.6988,-10.33644 4.6988,-17.28365 0,-7.32394 -0.36402,-8.49839 -3.65385,-11.7882 -6.10658,-6.10659 -15.56513,-4.51499 -24.70756,4.15756 -5.12067,4.85746 -9.1445,4.20437 -20.47262,-3.32282 -14.68692,-9.75904 -18.24837,-11.1491 -26.09716,-10.18595 -3.8191,0.46865 -10.60006,1.26778 -15.06881,1.77586 -10.36489,1.17843 -14.43021,3.39688 -21.59674,11.78539 -4.69987,5.50126 -6.92294,7.06081 -11.78539,8.26784 -17.5639,4.35994 -29.46983,14.34901 -36.60347,30.71024 -3.57106,8.19035 -3.912,9.78947 -2.40076,11.26038 5.00787,4.87426 19.96298,5.31474 28.54645,0.84079 z M 530.90112,171.90336 c 2.96025,-6.42875 3.02055,-6.94684 0.98195,-8.4375 -1.19459,-0.8735 -2.65791,-1.58819 -3.25185,-1.58819 -1.17552,0 -5.71466,9.67399 -10.55722,22.5 l -3.06765,8.125 6.37043,-6.875 c 3.50374,-3.78125 7.78969,-9.95719 9.52434,-13.72431 z m 438.3503,8.4781 c 4.42133,-1.68118 4.32793,-2.90715 -0.625,-8.20434 -17.81164,-19.04966 -20.07588,-20.21886 -42.16355,-21.77235 -8.60692,-0.60535 -20.78931,-2.01166 -27.07199,-3.12512 -12.55416,-2.22495 -23.388,-1.77134 -30.52028,1.27789 l -4.44334,1.89964 8.81834,9.23945 c 11.20961,11.74494 16.08099,15.33894 24.90612,18.37524 8.0272,2.76175 15.92005,3.31551 29.5372,2.0723 6.23529,-0.56926 12.72402,-0.25699 19.375,0.93241 10.18947,1.82221 16.05007,1.6386 22.1875,-0.69512 z m 48.93318,-25.06629 c -4.0591,-8.0808 -3.5522,-7.57608 -6.6282,-6.59978 -2.356,0.74775 -2.0764,1.32545 3.3433,6.90902 3.2528,3.35117 6.0643,6.12908 6.2478,6.17315 0.1834,0.044 -1.1499,-2.87302 -2.9629,-6.48239 z m -393.07765,1.48864 c 11.60731,-1.88329 19.41338,-5.65796 25.12907,-12.15132 4.24316,-4.82048 4.95222,-6.45241 4.94822,-11.38831 -0.0122,-15.01635 -13.47203,-21.60199 -34.99532,-17.12248 -10.33044,2.15 -34.39725,13.62718 -40.42906,19.28014 -1.95473,1.83195 -4.97198,6.14333 -6.705,9.58083 -1.73302,3.4375 -4.01774,7.23437 -5.07718,8.4375 -1.8173,2.06379 -1.26139,2.19576 9.83,2.3336 6.46594,0.0804 15.41249,0.55709 19.88124,1.0594 12.45666,1.40018 18.64814,1.39355 27.41802,-0.0294 z m -61.16803,-11.30502 c 0,-0.60605 -2.80239,-2.93436 -6.22754,-5.17401 -3.42515,-2.23966 -6.23765,-4.56744 -6.25,-5.17282 -0.0716,-3.50709 21.07873,-29.36163 37.34713,-45.653879 10.20677,-10.221745 12.73522,-13.424798 11.78568,-14.930126 -0.66488,-1.054066 -1.8502,-2.130255 -2.63402,-2.39153 -1.85591,-0.61864 -22.05709,18.871547 -32.3869,31.247025 -8.0871,9.68866 -25.38435,34.33348 -25.38435,36.16721 0,0.53676 4.35937,3.53525 9.6875,6.66331 l 9.6875,5.6874 2.1875,-2.67034 c 1.20312,-1.46867 2.1875,-3.16618 2.1875,-3.77224 z m 426.34412,-10.94524 c -5.5746,-10.41624 -30.53398,-39.114093 -41.73307,-47.983931 -4.31907,-3.420768 -4.98335,-3.605361 -6.72102,-1.867684 -1.73768,1.737678 -0.57752,3.268593 11.73832,15.489495 7.51661,7.45868 16.95239,17.67193 20.96839,22.69611 4.01599,5.02418 9.32151,10.20244 11.79004,11.50725 5.58972,2.95462 5.45066,2.94904 3.95735,0.15875 z m -187.10435,-3.32723 c 1.65027,-1.08129 4.7485,-5.62546 6.88499,-10.09816 3.2556,-6.81553 4.09515,-10.55794 5.18546,-23.11462 1.53574,-17.686561 4.89373,-29.572758 9.99654,-35.384532 6.44128,-7.336218 4.97288,-9.470955 -9.60957,-13.970139 -5.78159,-1.783819 -11.08648,-4.351944 -13.29677,-6.437042 -3.55958,-3.357962 -3.72308,-3.390577 -5.10143,-1.017565 -1.83084,3.15204 -6.60622,7.862791 -12.5152,12.345853 -3.91313,2.968825 -4.61324,4.189574 -4.29229,7.484308 0.3093,3.175095 1.42131,4.507679 5.74697,6.886834 7.55477,4.1552 9.34138,7.51269 9.99367,18.780566 0.6615,11.426907 -1.79168,22.401427 -7.26733,32.511137 -4.78599,8.83638 -4.72747,11.0831 0.34769,13.34986 4.57577,2.0437 9.48785,1.57232 13.92727,-1.3365 z m 30.02558,-10.57061 c 8.26317,-2.11336 9.87515,-2.16319 18.26465,-0.56465 10.08529,1.92167 15.01294,1.21141 22.18771,-3.19808 5.15753,-3.16972 8.65438,-3.16845 13.40729,0.005 6.78747,4.53175 12.46915,5.27373 33.01129,4.31099 l 19.3585,-0.90726 -4.93489,-3.83144 c -2.7142,-2.10738 -9.15365,-8.20998 -14.3099,-13.56143 -13.30485,-13.80851 -18.00799,-14.506532 -40.27218,-5.977036 -8.44135,3.233906 -11.26214,3.695866 -22.56777,3.695866 -12.12264,0 -13.2638,0.22263 -18.47782,3.60488 -3.05648,1.98268 -10.05723,8.22643 -15.55723,13.875 -9.7892,10.05363 -9.88587,10.21317 -4.58635,7.56811 2.97751,-1.48611 9.49204,-3.74508 14.4767,-5.01995 z m -51.98816,-2.57684 c 3.57393,-3.83618 6.68385,-14.4229 7.39747,-25.182443 0.86625,-13.060544 0.1419,-15.156152 -6.60557,-19.110433 -7.40369,-4.338849 -10.43647,-10.207157 -8.31175,-16.082937 2.46792,-6.824919 2.21974,-7.075383 -7.01097,-7.075383 -7.4311,0 -9.75652,0.630457 -18.4375,4.998688 -13.27873,6.681811 -32.2777,20.180437 -30.23233,21.479869 0.85165,0.541065 4.37658,1.815361 7.83318,2.831767 6.7405,1.982031 11.49348,6.168825 14.97332,13.189676 3.14718,6.34972 5.37953,8.501406 9.80907,9.454696 6.75264,1.45324 10.5488,4.091 14.72895,10.23443 2.22143,3.26473 4.63857,6.34913 5.37144,6.85423 2.57475,1.77451 8.13475,0.93019 10.48469,-1.59216 z m 46.42347,-11.95784 c 9.07871,-9.625167 12.62603,-11.048573 29.33296,-11.770215 12.12909,-0.523905 16.50222,-1.243802 22.27888,-3.667517 3.95312,-1.658611 7.18316,-3.334025 7.17787,-3.723141 -0.005,-0.389115 -2.11467,-1.93475 -4.6875,-3.434743 -2.57283,-1.499994 -9.16752,-6.507695 -14.65487,-11.128225 -15.0038,-12.633707 -22.58735,-15.311057 -31.02258,-10.952421 -5.23475,2.704891 -6.54732,4.569791 -9.54251,13.557906 -3.59771,10.796222 -6.46075,35.624996 -4.10797,35.624996 0.53622,0 2.8878,-2.02799 5.22572,-4.50664 z M 558.41286,458.83336 c -12.81745,-15.57829 -19.44283,-25.04901 -27.76499,-39.68902 -6.38898,-11.23921 -17.95895,-35.92892 -17.95895,-38.32346 0,-0.91033 15.61484,-7.69321 17.71053,-7.69321 0.4255,0 2.28019,3.79687 4.12158,8.4375 6.74957,17.0102 28.48575,54.29379 33.4371,57.35389 0.67138,0.41492 2.1194,-0.14428 3.21782,-1.2427 1.82948,-1.82949 1.66186,-2.44518 -1.99717,-7.3354 -7.89008,-10.54495 -18.29795,-28.1137 -25.63673,-43.2755 -6.02739,-12.45244 -7.13433,-15.65108 -5.72512,-16.54335 0.96084,-0.60839 2.41123,-1.11478 3.22307,-1.1253 0.81185,-0.01 5.36973,8.04231 10.12865,17.89518 7.87977,16.31434 15.98008,29.70357 26.86448,44.40503 l 4.03079,5.44435 -4.375,3.73167 c -2.40625,2.05243 -5.71541,4.63804 -7.3537,5.74582 -2.85564,1.93092 -3.10418,1.86168 -6.01576,-1.67603 -6.98404,-8.48591 -20.9173,-30.94919 -28.8037,-46.43749 -4.64852,-9.12932 -8.7662,-16.60527 -9.15043,-16.61322 -0.38422,-0.007 -1.73446,0.743 -3.00053,1.66877 -2.18521,1.59785 -1.97795,2.36145 4.08641,15.05664 3.51359,7.35539 9.34032,18.26059 12.9483,24.23378 6.60882,10.94123 23.0341,33.51347 26.44971,36.34817 1.52207,1.26321 3.48736,0.0862 11.3462,-6.79516 7.93015,-6.94383 9.81497,-8.06596 11.37437,-6.77178 1.02802,0.85318 1.86088,2.18549 1.85079,2.96068 -0.0163,1.24971 -21.51851,22.03445 -22.79509,22.03445 -0.27971,0 -4.87538,-5.30744 -10.21263,-11.79431 z m 429.25241,-3.55769 c -1.73175,-1.52515 -4.96816,-4.19511 -7.19201,-5.93325 l -4.04338,-3.16026 8.26907,-11.21474 c 16.27015,-22.06605 32.63555,-53.46143 29.05155,-55.73261 -0.9276,-0.58788 -2.2491,-1.05028 -2.9366,-1.02757 -0.6875,0.0228 -4.0625,6.03509 -7.5,13.36085 -6.40145,13.64238 -15.26778,28.61138 -25.14762,42.45674 -5.03233,7.05216 -5.81386,7.66388 -8.02627,6.2822 -1.3481,-0.8419 -2.45109,-1.96336 -2.45109,-2.49212 0,-0.52878 3.02261,-5.04859 6.71693,-10.04404 11.71542,-15.84161 23.37415,-36.50901 28.90875,-51.24652 1.2348,-3.28808 2.6533,-6.23059 3.1522,-6.53893 0.763,-0.47157 15.9889,5.07643 17.2677,6.29199 0.2314,0.2199 -1.9041,5.64805 -4.7454,12.06254 -5.8542,13.21635 -17.355,33.49062 -26.72832,47.11811 -6.04328,8.78612 -6.22377,9.28427 -3.96285,10.9375 1.30285,0.95266 2.79725,1.73211 3.32092,1.73211 1.72096,0 19.50655,-27.85032 26.43655,-41.39679 7.203,-14.08021 16.1678,-35.88196 15.3191,-37.25511 -0.279,-0.45145 -5.6099,-2.45152 -11.8464,-4.4446 -7.9296,-2.53414 -11.3334,-4.21084 -11.3201,-5.57614 0.047,-4.83587 1.6972,-4.84666 16.8559,-0.11025 17.324,5.41299 16.4305,3.267 9.284,22.29888 -5.7928,15.4268 -16.5822,37.20746 -24.5011,49.46092 -7.1845,11.11707 -19.10522,27.03614 -20.20608,26.98355 -0.45474,-0.0217 -2.24369,-1.28735 -3.97545,-2.8125 z m -481.8603,-95.05846 c -7.39056,-23.82673 -11.86605,-54.06245 -11.86605,-80.16528 l 0,-15.67426 5.3125,0.0138 c 2.92187,0.007 7.42187,0.36241 10,0.78855 l 4.6875,0.77479 0.0216,13.89895 c 0.0315,20.22401 4.37115,55.74641 7.41125,60.6654 1.23272,1.99457 6.5784,0.0925 5.75687,-2.04839 -3.84948,-10.03158 -8.92218,-64.62404 -6.57354,-70.7445 0.43862,-1.14301 1.6842,-1.6552 3.11524,-1.28098 2.17321,0.56832 2.45516,2.35878 3.18333,20.21548 0.80222,19.67211 3.05759,37.03484 6.58163,50.66771 1.04151,4.02919 1.72152,7.49568 1.51111,7.70333 -0.2104,0.20764 -4.20924,1.396 -8.88631,2.64077 -6.79793,1.80925 -8.7022,1.94217 -9.49301,0.6626 -3.03504,-4.9108 -8.81868,-48.10566 -8.85657,-66.14497 l -0.0216,-10.31254 -3.9318,0 -3.93181,0 0.86134,17.1875 c 0.47373,9.45312 1.71192,23.09375 2.75151,30.3125 2.04959,14.23194 7.68534,38.69525 9.32658,40.48423 0.58204,0.63442 5.65656,-0.33712 11.85513,-2.26973 11.51549,-3.59035 14.31905,-3.51471 14.31905,0.38627 0,1.99177 -2.69816,3.33183 -14.9828,7.44128 l -14.9828,5.01204 -3.16835,-10.21455 z M 617.28579,69.309041 c -4.66289,-6.225248 -8.73623,-11.991563 -9.05185,-12.814033 -0.88643,-2.310012 22.99573,-17.556109 43.20498,-27.581559 15.95272,-7.913861 50.39657,-20.8058615 51.81034,-19.3921027 0.28479,0.284792 1.6535,4.6161077 3.04157,9.6251477 1.86555,6.732054 2.13248,9.234132 1.02344,9.593476 -31.1512,10.093396 -45.04491,15.851219 -61.81285,25.61644 -6.82811,3.976518 -7.23402,4.525766 -5.43894,7.359483 0.85856,1.355328 5.22838,-0.351256 20.91836,-8.169453 17.83468,-8.886882 47.21277,-20.330741 48.60864,-18.934872 0.30004,0.300045 0.69829,1.781262 0.88499,3.291595 0.30449,2.463272 -1.20294,3.265814 -14.63826,7.79324 -16.81707,5.667 -33.2717,13.160632 -46.24285,21.059521 -4.79632,2.920754 -9.16328,5.408626 -9.70437,5.528606 -0.54107,0.119975 -3.23272,-3.2863 -5.98145,-7.569508 l -4.99766,-7.787653 5.32701,-3.39269 c 9.92254,-6.319492 36.50381,-18.886647 51.28207,-24.245256 13.31222,-4.827025 14.62946,-5.57854 13.90721,-7.934403 -0.4388,-1.43129 -1.02202,-2.849556 -1.29606,-3.151701 -0.77574,-0.855339 -17.3213,4.68275 -30.44119,10.189203 -21.38962,8.977285 -50.65115,26.235318 -49.51275,29.201927 0.34526,0.899754 3.52685,5.621808 7.07019,10.493454 5.28925,7.272056 6.16892,9.187095 4.91444,10.698655 -0.84039,1.012613 -2.17352,1.841116 -2.96249,1.841116 -0.78898,0 -5.2496,-5.093385 -9.91252,-11.318633 z M 902.06392,67.938855 C 886.48669,58.80103 869.08795,50.843131 854.16176,46.029204 c -8.02882,-2.589416 -14.79424,-4.826088 -15.03428,-4.970381 -1.10023,-0.661382 4.28581,-17.931149 5.59233,-17.931149 5.60657,0 41.85712,14.696418 59.00896,23.922955 11.05166,5.945049 11.75596,6.154715 13.39775,3.988476 0.95309,-1.257537 1.75078,-2.61982 1.77265,-3.027296 0.0544,-1.013315 -21.22848,-12.679276 -31.21025,-17.107554 -16.57123,-7.351599 -44.29669,-16.526581 -49.94092,-16.526581 -1.61835,0 -2.54994,1.805466 -3.70859,7.1875 -3.24594,15.077589 -3.82313,16.5625 -6.4379,16.5625 -1.37008,0 -2.76084,-0.703125 -3.09058,-1.5625 -0.32973,-0.859375 0.70718,-8.03125 2.30425,-15.9375 l 2.90377,-14.3749997 4.29748,0.432814 c 7.88668,0.7942925 34.11475,8.9867267 50.00418,15.6189827 8.63867,3.605792 22.30526,10.387727 30.37019,15.070968 l 14.66348,8.514985 -2.14406,3.306125 c -6.94455,10.708381 -8.41435,12.681125 -9.44816,12.681125 -0.62955,0 -5.8074,-2.80627 -11.50631,-6.236156 -13.49629,-8.122712 -28.27988,-14.970451 -44.3253,-20.53141 -7.11342,-2.465339 -13.09472,-4.482434 -13.29178,-4.482434 -0.19707,0 -0.6197,1.367397 -0.93919,3.03866 -0.54535,2.852806 0.21855,3.314811 12.48952,7.55365 20.06881,6.932504 54.04992,23.733791 54.04992,26.723915 0,0.525774 -0.70313,1.894624 -1.5625,3.041891 -1.42123,1.897333 -2.35366,1.621833 -10.3125,-3.046935 z"
     id="path4189"
     inkscape:connector-curvature="0" />
</svg>
